<?xml version="1.0" encoding="utf-8"?><!-- Uploaded to: SVG Repo, www.svgrepo.com, Generator: SVG Repo Mixer Tools -->
<svg width="800px" height="800px" viewBox="-0.5 0 25 25" fill="none" xmlns="http://www.w3.org/2000/svg">
<path d="M10 15.625H6.87C4.45 15.625 2.5 13.605 2.5 11.095C2.5 8.60497 4.45 6.56497 6.87 6.56497C7.39 6.56497 7.87999 6.65497 8.32999 6.82497C8.58999 6.92497 8.87999 6.82498 9.01999 6.58498C9.75999 5.35498 11.08 4.53497 12.59 4.53497C14.61 4.53497 16.28 5.99498 16.69 7.94498C16.75 8.21498 16.97 8.35497 17.24 8.29497C17.46 8.24497 17.69 8.22498 17.93 8.22498C19.91 8.22498 21.5 9.88497 21.5 11.935C21.5 13.965 19.9 15.625 17.93 15.625H14.01" stroke="#0F0F0F" stroke-miterlimit="10" stroke-linecap="round" stroke-linejoin="round"/>
<path d="M11.9999 14.585L11.9999 20.465" stroke="#0F0F0F" stroke-miterlimit="10" stroke-linecap="round" stroke-linejoin="round"/>
<path d="M14.0499 13.4249L12.3599 11.7349C12.1599 11.5349 11.8499 11.5349 11.6499 11.7349L9.94992 13.4349" stroke="#0F0F0F" stroke-miterlimit="10" stroke-linecap="round" stroke-linejoin="round"/>
</svg>