<?xml version="1.0" encoding="utf-8"?><!-- Uploaded to: SVG Repo, www.svgrepo.com, Generator: SVG Repo Mixer Tools -->
<svg width="800px" height="800px" viewBox="-0.5 0 25 25" fill="none" xmlns="http://www.w3.org/2000/svg">
<path d="M15.1699 16.1287L20.5599 10.6987C21.8099 9.43875 21.8099 7.40875 20.5599 6.14875C19.3099 4.89875 17.2799 4.89875 16.0399 6.14875L10.6499 11.5788C9.3999 12.8388 9.3999 14.8687 10.6499 16.1287C11.8999 17.3887 13.9199 17.3887 15.1699 16.1287Z" stroke="#0F0F0F" stroke-miterlimit="10" stroke-linecap="round" stroke-linejoin="round"/>
<path d="M9.23996 17.5488L7.95993 18.8388C7.33993 19.4688 6.51995 19.7887 5.69995 19.7887C4.87995 19.7887 4.05994 19.4688 3.43994 18.8388C2.18994 17.5788 2.18994 15.5387 3.43994 14.2887L4.70993 13.0187L6.11993 11.5988L8.82996 8.85875C9.45996 8.22875 10.2699 7.90875 11.0899 7.90875C11.2099 7.90875 11.33 7.91875 11.45 7.92875" stroke="#0F0F0F" stroke-miterlimit="10" stroke-linecap="round" stroke-linejoin="round"/>
</svg>